<mxfile host="app.diagrams.net" modified="2020-11-22T02:57:16.463Z" agent="5.0 (Windows NT 10.0; Win64; x64) AppleWebKit/537.36 (KHTML, like Gecko) Chrome/86.0.4240.198 Safari/537.36 Edg/86.0.622.69" etag="OKtkR9hrUKGU04BlAkO2" version="13.10.0" type="github">
  <diagram id="AxrJJKRLzsk0RZ8MKxAa" name="Page-1">
    <mxGraphModel dx="1186" dy="499" grid="1" gridSize="10" guides="1" tooltips="1" connect="1" arrows="1" fold="1" page="1" pageScale="1" pageWidth="850" pageHeight="1100" math="0" shadow="0">
      <root>
        <mxCell id="0" />
        <mxCell id="1" parent="0" />
        <mxCell id="iEezysBtRS6xLM2H2bQw-1" value="Khách hàng" style="shape=umlActor;verticalLabelPosition=bottom;verticalAlign=top;html=1;outlineConnect=0;" vertex="1" parent="1">
          <mxGeometry x="100" y="190" width="30" height="120" as="geometry" />
        </mxCell>
        <mxCell id="iEezysBtRS6xLM2H2bQw-2" value="" style="shape=umlLifeline;participant=umlBoundary;perimeter=lifelinePerimeter;whiteSpace=wrap;html=1;container=1;collapsible=0;recursiveResize=0;verticalAlign=top;spacingTop=36;outlineConnect=0;" vertex="1" parent="1">
          <mxGeometry x="240" y="280" width="120" height="330" as="geometry" />
        </mxCell>
        <mxCell id="iEezysBtRS6xLM2H2bQw-3" value="" style="shape=umlLifeline;participant=umlControl;perimeter=lifelinePerimeter;whiteSpace=wrap;html=1;container=1;collapsible=0;recursiveResize=0;verticalAlign=top;spacingTop=36;outlineConnect=0;" vertex="1" parent="1">
          <mxGeometry x="470" y="280" width="90" height="320" as="geometry" />
        </mxCell>
        <mxCell id="iEezysBtRS6xLM2H2bQw-4" value="" style="shape=umlLifeline;participant=umlEntity;perimeter=lifelinePerimeter;whiteSpace=wrap;html=1;container=1;collapsible=0;recursiveResize=0;verticalAlign=top;spacingTop=36;outlineConnect=0;" vertex="1" parent="1">
          <mxGeometry x="700" y="280" width="100" height="290" as="geometry" />
        </mxCell>
        <mxCell id="iEezysBtRS6xLM2H2bQw-9" value="" style="html=1;points=[];perimeter=orthogonalPerimeter;" vertex="1" parent="1">
          <mxGeometry x="110" y="350" width="10" height="260" as="geometry" />
        </mxCell>
        <mxCell id="iEezysBtRS6xLM2H2bQw-10" value="&lt;font style=&quot;font-size: 14px&quot;&gt;1.Yêu câu xem trạng &lt;br&gt;thái giao hàng&lt;/font&gt;" style="html=1;verticalAlign=bottom;startArrow=circle;startFill=1;endArrow=open;startSize=6;endSize=8;" edge="1" parent="1" target="iEezysBtRS6xLM2H2bQw-2">
          <mxGeometry width="80" relative="1" as="geometry">
            <mxPoint x="120" y="400" as="sourcePoint" />
            <mxPoint x="255" y="400" as="targetPoint" />
          </mxGeometry>
        </mxCell>
        <mxCell id="iEezysBtRS6xLM2H2bQw-11" value="&lt;font style=&quot;font-size: 14px&quot;&gt;2.Hiển thị chi tiết &lt;br&gt;đơn hàng&lt;/font&gt;" style="html=1;verticalAlign=bottom;startArrow=circle;startFill=1;endArrow=open;startSize=6;endSize=8;" edge="1" parent="1" target="iEezysBtRS6xLM2H2bQw-2">
          <mxGeometry width="80" relative="1" as="geometry">
            <mxPoint x="120" y="480" as="sourcePoint" />
            <mxPoint x="200" y="480" as="targetPoint" />
          </mxGeometry>
        </mxCell>
        <mxCell id="iEezysBtRS6xLM2H2bQw-12" value="&lt;font style=&quot;font-size: 14px&quot;&gt;3.Xác&amp;nbsp; nhận yêu cầu&lt;/font&gt;" style="html=1;verticalAlign=bottom;startArrow=circle;startFill=1;endArrow=open;startSize=6;endSize=8;" edge="1" parent="1" target="iEezysBtRS6xLM2H2bQw-3">
          <mxGeometry x="0.0256" y="10" width="80" relative="1" as="geometry">
            <mxPoint x="300" y="530" as="sourcePoint" />
            <mxPoint x="380" y="530" as="targetPoint" />
            <Array as="points">
              <mxPoint x="410" y="530" />
            </Array>
            <mxPoint x="1" as="offset" />
          </mxGeometry>
        </mxCell>
        <mxCell id="iEezysBtRS6xLM2H2bQw-13" value="&lt;font style=&quot;font-size: 14px&quot;&gt;3.Xác&amp;nbsp; nhận yêu cầu&lt;/font&gt;" style="html=1;verticalAlign=bottom;startArrow=circle;startFill=1;endArrow=open;startSize=6;endSize=8;" edge="1" parent="1">
          <mxGeometry x="0.0256" y="10" width="80" relative="1" as="geometry">
            <mxPoint x="510" y="550" as="sourcePoint" />
            <mxPoint x="749.5" y="550" as="targetPoint" />
            <Array as="points">
              <mxPoint x="620" y="550" />
            </Array>
            <mxPoint x="1" as="offset" />
          </mxGeometry>
        </mxCell>
        <mxCell id="iEezysBtRS6xLM2H2bQw-14" value="return" style="html=1;verticalAlign=bottom;endArrow=open;dashed=1;endSize=8;" edge="1" parent="1" target="iEezysBtRS6xLM2H2bQw-3">
          <mxGeometry relative="1" as="geometry">
            <mxPoint x="749.5" y="570" as="sourcePoint" />
            <mxPoint x="500" y="630" as="targetPoint" />
            <Array as="points">
              <mxPoint x="580" y="570" />
            </Array>
          </mxGeometry>
        </mxCell>
        <mxCell id="iEezysBtRS6xLM2H2bQw-15" value="return" style="html=1;verticalAlign=bottom;endArrow=open;dashed=1;endSize=8;" edge="1" parent="1" source="iEezysBtRS6xLM2H2bQw-3">
          <mxGeometry relative="1" as="geometry">
            <mxPoint x="420" y="630" as="sourcePoint" />
            <mxPoint x="310" y="590" as="targetPoint" />
          </mxGeometry>
        </mxCell>
        <mxCell id="iEezysBtRS6xLM2H2bQw-16" value="&lt;font style=&quot;font-size: 14px&quot;&gt;4.Thông tin chi tiết&amp;nbsp;&lt;br&gt;&amp;nbsp;đơn hàng đang giao&lt;/font&gt;" style="html=1;verticalAlign=bottom;endArrow=open;dashed=1;endSize=8;" edge="1" parent="1" source="iEezysBtRS6xLM2H2bQw-2">
          <mxGeometry x="-0.0083" relative="1" as="geometry">
            <mxPoint x="300" y="630" as="sourcePoint" />
            <mxPoint x="119" y="610" as="targetPoint" />
            <Array as="points">
              <mxPoint x="270" y="610" />
            </Array>
            <mxPoint as="offset" />
          </mxGeometry>
        </mxCell>
        <mxCell id="iEezysBtRS6xLM2H2bQw-17" value="Sequence Quản Lý Giao Hàng" style="shape=umlFrame;whiteSpace=wrap;html=1;width=190;height=30;" vertex="1" parent="1">
          <mxGeometry y="140" width="810" height="520" as="geometry" />
        </mxCell>
        <mxCell id="iEezysBtRS6xLM2H2bQw-20" value="&lt;font style=&quot;font-size: 14px&quot;&gt;Form quản lý giao hàng&lt;/font&gt;" style="text;html=1;align=center;verticalAlign=middle;resizable=0;points=[];autosize=1;" vertex="1" parent="1">
          <mxGeometry x="240" y="240" width="160" height="20" as="geometry" />
        </mxCell>
        <mxCell id="iEezysBtRS6xLM2H2bQw-21" value="&lt;font style=&quot;font-size: 14px&quot;&gt;Controller giao hàng&lt;/font&gt;" style="text;html=1;align=center;verticalAlign=middle;resizable=0;points=[];autosize=1;" vertex="1" parent="1">
          <mxGeometry x="455" y="240" width="140" height="20" as="geometry" />
        </mxCell>
        <mxCell id="iEezysBtRS6xLM2H2bQw-24" value="&lt;font style=&quot;font-size: 14px&quot;&gt;Model giao hàng&lt;/font&gt;" style="text;html=1;align=center;verticalAlign=middle;resizable=0;points=[];autosize=1;" vertex="1" parent="1">
          <mxGeometry x="680" y="240" width="120" height="20" as="geometry" />
        </mxCell>
      </root>
    </mxGraphModel>
  </diagram>
</mxfile>
